<svg xmlns="http://www.w3.org/2000/svg" data-name="open book comic" viewBox="0 0 100 100" x="0px" y="0px" style="max-width:100%" height="100%"><title style="" fill="currentColor">Artboard 1</title><path d="M86.42,28.16a1.59,1.59,0,0,0-.29-.34,1.8,1.8,0,0,0-.75-1.2,33.22,33.22,0,0,0-20.64-6.15c-4,.18-10.64.93-14,4.14-2.78-2.84-9.55-4.79-12-5.36a30.36,30.36,0,0,0-19.69,1.93c-2.41,1.16-3.47,2.27-4.12,4.82-1.13,4.47-1.41,9.35-2,13.93C11.75,50.27,11,60.66,10.76,71.07v0a1.54,1.54,0,0,0,0,1.22L13.72,79a1.49,1.49,0,0,0,1.69.69c7.83-3.19,15.58-1,23.28,1.42a1.53,1.53,0,0,0,1.85-1,15,15,0,0,1,1.7-3.52,22.23,22.23,0,0,1,1.09,3.77,1.52,1.52,0,0,0,2.51.66c3.73-3,11.7-2,16.18-1.59a72.27,72.27,0,0,1,15.32,3.26,1.34,1.34,0,0,0,.86,0,1.27,1.27,0,0,0,1-1c2.61-11.81,4.06-23.86,7.31-35.51.95-3.4,2.64-7.08,3.08-10.59C89.92,32.68,87.9,30.48,86.42,28.16Zm-17.9-4.62a30.51,30.51,0,0,1,14,4.8c-3.82,6-5.18,12.89-6.61,19.85s-3.45,14-4.32,21.22c-4.49-1.63-9-1.45-13.92-1.51a34.43,34.43,0,0,0-13.8,2.41q3.31-21.12,8-42a1.63,1.63,0,0,0,.08-.19C53.44,23.48,64.79,23.23,68.52,23.54Zm-51,5.19c.62-3.84,2.4-5,6.23-6.14a27.14,27.14,0,0,1,8.58-1.14,28.43,28.43,0,0,1,9.76,2c.9.36,6.93,2.91,6.9,3.73a1.6,1.6,0,0,0,0,.17q-4.8,21.37-8.15,43c-7.3-3.42-19.9-7.49-27-2.92A314.86,314.86,0,0,1,17.53,28.73ZM38.25,77.82c-7.41-2.28-14.94-4-22.43-1.47L13.73,71.6c5.07-6.9,20.76-1.07,27,2A23,23,0,0,0,38.25,77.82Zm20.42-1.66c-4.26-.16-9.06-.5-12.93,1.4a25.86,25.86,0,0,0-1.52-4c1.19-.43,2.72-.82,3.58-1.18a23.63,23.63,0,0,1,9.89-1.52c4.87.07,9.61-.27,14.08,1.8,1.06,2.13,2.55,4.07,3.58,6.21A71.48,71.48,0,0,0,58.67,76.16Zm27.3-39c-1.15,3.91-2.32,7.81-3.35,11.76a89,89,0,0,0-2.31,11.48c-.67,5.38-1.82,10.61-3,15.87-1-1.65-2-3.25-2.9-5,.7-7.58,2.88-14.85,4.42-22.29,1.31-6.33,2.52-12.6,5.74-18.18C86,33,86.83,34.22,86,37.13Z" style="" fill="currentColor"></path><path d="M19.25,37.3a.81.81,0,0,0,.94.85A25.91,25.91,0,0,1,28.49,38c.42.06,1-.18.95-.72a16.35,16.35,0,0,1,1.16-8.46.59.59,0,0,0,0-.58.69.69,0,0,0-.48-.95A15.38,15.38,0,0,0,23.62,27c-1,.18-3.11.38-3.46,1.57a.71.71,0,0,0-.22.34,26.54,26.54,0,0,0-1,4.74c-.12,1.07-.48,2.65.23,3.58Zm9.83-8.71a17.13,17.13,0,0,0-1.21,7.84,28.16,28.16,0,0,0-7.34.16.65.65,0,0,0-.06-.12c-.59-.77,0-2.91.11-3.78a25.89,25.89,0,0,1,.81-3.39s0,0,0,0a.68.68,0,0,0,.12-.15C23.51,27.9,26.79,28.11,29.08,28.6Z" style="" fill="currentColor"></path><path d="M32,39a55.62,55.62,0,0,1,8.06.49.76.76,0,0,0,.95-.72c.06-2.8,1.59-5.29,1.79-8.09a.74.74,0,0,0-.37-.65,18.11,18.11,0,0,0-9.2-2.17.73.73,0,0,0-.94.49c-1,3.34-1.85,6.63-1,10.1A.76.76,0,0,0,32,39ZM41.2,31.7c.11,1.08-.8,2.67-1.11,3.7a13,13,0,0,0-.51,2.49,58.12,58.12,0,0,0-6.93-.43c-.52-2.78.13-5.48.93-8.16C35.87,29.28,41,29.56,41.2,31.7Z" style="" fill="currentColor"></path><path d="M17.28,47.87l.18.65a.69.69,0,0,0,.39.48L18,49l.12,0,.09,0c6.94,0,13.72-.24,20.54,1.2a.77.77,0,0,0,.92-.52c.76-2.42,1.34-4.89,2.11-7.31a.75.75,0,0,0-.52-.92C34,40.34,26.83,39.33,19.5,40.09l-.07,0a.67.67,0,0,0-.65.53c-.57,2.21-1.49,4.4-1.44,6.69A.69.69,0,0,0,17.28,47.87Zm14.79-6.18c.78.08,7.25.27,7.87,1.49.2.4-.9,4-1.21,4.4-1.22,1.76-5.28.11-7.5,0-4.11-.19-8.27-.06-12.39,0-.17-2,.68-4.07,1.24-6A59.4,59.4,0,0,1,32.07,41.69Z" style="" fill="currentColor"></path><path d="M17,60.34a.76.76,0,0,0,.95.72,43.71,43.71,0,0,1,17.93.63.77.77,0,0,0,.92-.52c.67-2.19,1.54-4.39,2.13-6.6.21-.79.47-.55.37-1.38a.79.79,0,0,0-.55-.72c-6.17-2-13.73-2-20.17-1.62a.84.84,0,0,0-1.18.77c0,1.11,0,2.21-.1,3.31a.62.62,0,0,0,0,.06c0,.41,0,1,0,1h0c0,.16,0,.31,0,.47C17.15,57.78,17,59,17,60.34Zm13.81-7.7c.36,0,6.44.42,6.84,1a22.13,22.13,0,0,0-.87,2.46c-.8,2.58-.61,3.69-3.5,3.43-1.6-.14-3.17-.49-4.78-.61a44.49,44.49,0,0,0-10,.51c0-1,.15-2,.23-3,0-.41,0-.83,0-1.24,0,0,0,0,0,0,0-.81.1-1.84.12-2.85A75.81,75.81,0,0,1,30.82,52.63Z" style="" fill="currentColor"></path><path d="M53.16,37.08a.62.62,0,0,0,.31-.09c2.72-1,6.22-.46,9.09-.29a49.16,49.16,0,0,1,10.71,1.93.76.76,0,0,0,.95-.72,23.11,23.11,0,0,1,2.18-6.21.77.77,0,0,0-.27-1c-6.95-3.52-14.76-4.33-22-1.33a.79.79,0,0,0-.49.75q-.78,3-1.29,6.06a.75.75,0,0,0,.05.42A.6.6,0,0,0,53.16,37.08Zm16.94-7.23c2.65.73,4.65.94,3.85,3.7-.36,1.23-.79,2.24-1.05,3.42a50.67,50.67,0,0,0-10.34-1.78c-2.72-.16-5.85-.66-8.56,0,.29-1.56.62-3.1,1-4.64A23.83,23.83,0,0,1,70.09,29.84Z" style="" fill="currentColor"></path><path d="M55.88,63.44c1.4-7.49,3-14.94,4.67-22.37a.71.71,0,0,0-.16-.64A.62.62,0,0,0,60,39.9a8.48,8.48,0,0,0-7.74-.13.6.6,0,0,0-.34.23.59.59,0,0,0-.14.37c-1.56,7.15-2.5,14.41-4,21.57a.75.75,0,0,0,0,.23c-.22.47,0,1.12.62,1.06a13.24,13.24,0,0,1,3.55.18c.6.1,2.15.14,2.64.58a.73.73,0,0,0,.57.2.6.6,0,0,0,.66-.47h0s0,0,0-.06l0-.11A.63.63,0,0,0,55.88,63.44Zm-6.52-1.75c1.42-6.87,2.35-13.83,3.84-20.69a6.84,6.84,0,0,1,5.81.08q-2.41,10.6-4.44,21.27c-.54-.16-1.13-.2-1.72-.3A18.84,18.84,0,0,0,49.36,61.69Z" style="" fill="currentColor"></path><path d="M69.52,39.93a10.47,10.47,0,0,0-6.55.84.67.67,0,0,0-.55.67c-.38,2.09-.78,4.18-1.16,6.28a.72.72,0,0,0,0,.08.8.8,0,0,0,0,.12.78.78,0,0,0,0,.16.71.71,0,0,0,.77.57h.16a9.45,9.45,0,0,1,5.23,0c.7.21,1.53.83,2.28.49s.78-1.17,1-1.84c.39-1.41.79-2.82,1.17-4.23C72.39,41,71.49,40.34,69.52,39.93Zm-.18,6.63c-.36,1.29-.3,1-1.5.63a10.29,10.29,0,0,0-1.44-.31,10.79,10.79,0,0,0-3.48.07c.3-1.64.61-3.28.91-4.92a8.85,8.85,0,0,1,3-.78c.78-.06,2.3-.19,2.94.29C71.12,42.56,69.69,45.28,69.33,46.56Z" style="" fill="currentColor"></path><path d="M65.85,50.92A7,7,0,0,0,60.79,52a.64.64,0,0,0-.4.48c-.84,3.67-1.61,7.37-2.76,10.93,0,0,0,0,0,0s0,0,0,.05a.64.64,0,0,0,.34.71h0l.15.07a.73.73,0,0,0,.41,0,17.42,17.42,0,0,1,7,.08.85.85,0,0,0,.21.07.68.68,0,0,0,1-.46l1.75-7.42c.27-1.13,1.26-3.22.55-4.32C68.48,51.33,66.81,51.07,65.85,50.92Zm1.33,4.91c-.55,2.36-.87,4.17-1.42,7.17H66v-.18s-.25,0-.25,0a20.41,20.41,0,0,0-6.19-.21c.31-1,.56-2,.79-3,.49-2.15,1-4.3,1.44-6.45a5.6,5.6,0,0,1,4-.67C67.77,52.84,67.58,54.11,67.18,55.83Z" style="" fill="currentColor"></path></svg>
