<svg xmlns="http://www.w3.org/2000/svg" xmlns:xlink="http://www.w3.org/1999/xlink" version="1.1" x="0px" y="0px" viewBox="0 0 100 100" enable-background="new 0 0 100 100" xml:space="preserve" style="max-width:100%" height="100%"><path d="M69.2,74.9v15H11.5v-56h23.8V10.2h33.9v22.4c0.6,0.5,1.2,1,1.8,1.6c1.3,1.3,2.4,2.8,3.4,4.3V5H32.7L6.3,31.3V95h68.1V80  l-5-5L69.2,74.9z M30.1,14.9v13.7H16.4L30.1,14.9z" style="" fill="currentColor"></path><path d="M19.3,52.2v3.5h15.1c-0.3-1.1-0.5-2.3-0.7-3.5H19.3z" style="" fill="currentColor"></path><path d="M48.2,57.1C48.2,57.1,48.2,57.1,48.2,57.1l13.2,0v-1.4v-3.5v-1.4H45.2C45.4,53.2,46.5,55.4,48.2,57.1z" style="" fill="currentColor"></path><path d="M38.8,63.9H19.3v3.5h23.1c-0.9-0.6-1.7-1.3-2.4-2.1C39.6,64.8,39.2,64.4,38.8,63.9z" style="" fill="currentColor"></path><rect x="19.3" y="75.6" width="42.1" height="3.5" style="" fill="currentColor"></rect><path d="M78.4,66.1h-3.3l-5-5c5.6-7.2,5.1-17.7-1.5-24.4c-3.6-3.6-8.3-5.4-13.1-5.4c-4.7,0-9.5,1.8-13.1,5.4  c-7.2,7.2-7.2,18.9,0,26.1c3.6,3.6,8.3,5.4,13,5.4c4,0,8-1.3,11.3-3.9l5,5v3.3l16.3,16.3l6.5-6.5L78.4,66.1z M65.3,59.5  c-2.7,2.7-6.3,4.1-9.8,4.1s-7.1-1.4-9.8-4.1c-5.4-5.4-5.4-14.2,0-19.6c2.7-2.7,6.3-4.1,9.8-4.1s7.1,1.4,9.8,4.1  C70.7,45.3,70.7,54.1,65.3,59.5z" style="" fill="currentColor"></path></svg>
