<svg xmlns="http://www.w3.org/2000/svg" xmlns:xlink="http://www.w3.org/1999/xlink" version="1.1" x="0px" y="0px" viewBox="0 0 100 100" enable-background="new 0 0 100 100" xml:space="preserve" style="max-width:100%" height="100%"><g style="" fill="currentColor"><path d="M28.483,14.359c-0.368,0.056-0.651,0.421-0.651,0.786v18.634c0,0.421,0.396,0.814,0.793,0.814h16.166v8.587h-17.27   c-0.028,0-0.057,0-0.085,0c-0.17,0-0.339,0.084-0.481,0.225l-9.484,9.317c-0.283,0.28-0.283,0.813,0,1.122l9.484,9.317   c0.142,0.14,0.368,0.225,0.566,0.225h17.27v20.486c0,0.981,0.849,1.768,1.812,1.768h6.257c0.99,0,1.783-0.813,1.783-1.768V63.387   h16.732c0.424,0,0.793-0.365,0.793-0.786V43.966c0-0.421-0.369-0.786-0.793-0.786H54.643v-8.587h17.836   c0.227,0,0.426-0.084,0.566-0.225l9.484-9.345c0.283-0.28,0.283-0.813,0-1.122l-9.484-9.317c-0.141-0.14-0.34-0.225-0.566-0.225   H28.625c0,0-0.028,0-0.057,0S28.512,14.359,28.483,14.359L28.483,14.359z M29.446,15.931h42.722l8.662,8.559l-8.662,8.503H29.446   V15.931L29.446,15.931z M46.376,34.593h6.681v8.587h-6.681V34.593L46.376,34.593z M27.86,44.752h42.722v17.062h-42.75l-8.663-8.531   L27.86,44.752L27.86,44.752z M46.376,63.387h6.681v20.486c0,0.111-0.057,0.196-0.197,0.196h-6.257   c-0.113,0-0.227-0.112-0.227-0.196V63.387L46.376,63.387z" style="" fill="currentColor"></path></g></svg>
