<svg xmlns="http://www.w3.org/2000/svg" width="648.8877" height="801.63031" viewBox="0 0 648.8877 801.63031">
  <defs>
    <style>
      .cls-1 {
        isolation: isolate;
      }

      .cls-2, .cls-3 {
        fill: #0065a6;
      }

      .cls-2 {
        fill-rule: evenodd;
      }
    </style>
  </defs>
  <title>diö-logo-only</title>
  <g id="Ellipse_4_copy" data-name="Ellipse 4 copy" class="cls-1">
    <g>
      <g id="Ellipse_3_copy-2" data-name="Ellipse 3 copy">
        <path class="cls-2" d="M81.92957,477.38525a242.16946,242.16946,0,0,1,97.17926-194.16681,241.64267,241.64267,0,0,0-80.1-39.4787A324.52948,324.52948,0,0,0,99.461,710.90839,241.65486,241.65486,0,0,0,179.10883,671.552,242.16969,242.16969,0,0,1,81.92957,477.38525ZM324.44373,152.57672a322.994,322.994,0,0,0-145.36047,34.33844,325.2622,325.2622,0,0,1,80.08533,56.83539,242.73531,242.73531,0,0,1,65.301-8.90381c133.95117,0,242.54016,108.5882,242.54016,242.53851s-108.589,242.53845-242.54016,242.53845a242.71409,242.71409,0,0,1-65.75293-9.02618,325.25827,325.25827,0,0,1-79.63336,56.39417,322.9917,322.9917,0,0,0,145.36047,34.33862c179.18567,0,324.444-145.29633,324.444-324.52747C648.8877,297.87231,503.6294,152.57672,324.44373,152.57672Z" transform="translate(0)"/>
      </g>
      <g id="Ellipse_6_copy-2" data-name="Ellipse 6 copy">
        <path class="cls-2" d="M325.01892,642.337c-.18353.00061-.36572.007-.54938.007C324.75873,642.344,324.93866,642.34186,325.01892,642.337Zm-.54938-329.91058c-3.62128,0-7.21393.12885-10.77649.36572C383.4693,432.90363,364.21533,553.745,314.48,641.59039c6.6767.54187,11.10492.71259,10.53894.74664a164.95574,164.95574,0,0,0-.54938-329.91058Z" transform="translate(0)"/>
      </g>
      <g id="Ellipse_4-2" data-name="Ellipse 4">
        <ellipse class="cls-3" cx="219.8224" cy="52.85634" rx="52.89847" ry="52.85635"/>
      </g>
      <g id="Ellipse_4_copy-2" data-name="Ellipse 4 copy">
        <ellipse class="cls-3" cx="431.41644" cy="52.85634" rx="52.89868" ry="52.85635"/>
      </g>
    </g>
  </g>
</svg>
